Coordinates
version=1
nRows=10
nColumns=22
inDegrees=yes

Units are S.I. units (second, meters, Newtons, ...)
If the header above contains a line with 'inDegrees', this indicates whether rotational values are in degrees (yes) or radians (no).

endheader
time	pelvis_tilt	pelvis_list	pelvis_rotation	pelvis_tx	pelvis_ty	pelvis_tz	hip_flexion_r	hip_adduction_r	hip_rotation_r	knee_angle_r	ankle_angle_r	subtalar_angle_r	hip_flexion_l	hip_adduction_l	hip_rotation_l	knee_angle_l	ankle_angle_l	subtalar_angle_l	lumbar_extension	lumbar_bending	lumbar_rotation
      0.01000000	     -7.23004201	      1.89415606	    -36.98403435	     -0.98798928	      0.88481630	     -0.39590272	      9.30098337	      1.34662794	      1.96623691	    -11.42409943	     13.96483016	     -1.50279826	      9.47723961	     -3.52218819	     -3.22034046	    -15.46427981	     17.11419116	      0.94207544	      3.60693346	      1.97922936	     12.91379103
      0.02000000	     -7.23028657	      1.89523625	    -36.98855306	     -0.98796214	      0.88481559	     -0.39593103	      9.29955604	      1.34268943	      1.96480559	    -11.42189632	     13.96764914	     -1.50457588	      9.47531804	     -3.51758579	     -3.21947290	    -15.46191055	     17.11277174	      0.94369481	      3.61181841	      1.98151993	     12.91203768
      0.03000000	     -7.23574760	      1.90527953	    -36.98713069	     -0.98790385	      0.88480488	     -0.39594752	      9.29299543	      1.33274741	      1.96085648	    -11.39376314	     13.97883574	     -1.51272069	      9.46972814	     -3.50737446	     -3.21863068	    -15.43391881	     17.10871256	      0.95037462	      3.63281879	      1.97599111	     12.90282830
      0.04000000	     -7.23676596	      1.90451268	    -36.98888667	     -0.98785387	      0.88480587	     -0.39598198	      9.28898229	      1.32930643	      1.96132862	    -11.39119562	     13.97848036	     -1.51388727	      9.46680245	     -3.50337602	     -3.21689121	    -15.43298379	     17.10773685	      0.95120769	      3.64032967	      1.97946159	     12.90133452
      0.05000000	     -7.24747623	      1.91285402	    -36.98844811	     -0.98777292	      0.88479489	     -0.39599848	      9.27691591	      1.32330059	      1.96021835	    -11.34803897	     13.97759546	     -1.51913681	      9.46019801	     -3.49642790	     -3.21372743	    -15.39860650	     17.10647727	      0.95402498	      3.66738300	      1.97984917	     12.88857451
      0.06000000	     -7.25516239	      1.91687998	    -36.98687119	     -0.98768388	      0.88479146	     -0.39602102	      9.26256271	      1.31864016	      1.96428232	    -11.31197341	     13.96780895	     -1.52396316	      9.45102897	     -3.49037808	     -3.20416991	    -15.37199717	     17.10084819	      0.95555750	      3.68947980	      1.98235398	     12.87925590
      0.07000000	     -7.26233099	      1.91922610	    -36.98732802	     -0.98759469	      0.88478834	     -0.39603631	      9.25109155	      1.31586341	      1.96519769	    -11.28585730	     13.96067586	     -1.52683494	      9.44083955	     -3.48674430	     -3.20290752	    -15.34656209	     17.09730977	      0.95538530	      3.70959329	      1.98475251	     12.87176782
      0.08000000	     -7.27086236	      1.92310405	    -36.98862075	     -0.98749986	      0.88478218	     -0.39604366	      9.24147848	      1.31282940	      1.96638319	    -11.25936193	     13.95534779	     -1.52851427	      9.42870051	     -3.48333575	     -3.20519262	    -15.31562727	     17.09384827	      0.95467863	      3.73249571	      1.98559631	     12.86544644
      0.09000000	     -7.27965368	      1.92819215	    -36.99074730	     -0.98740237	      0.88477489	     -0.39604438	      9.23391345	      1.30942375	      1.96849773	    -11.23532767	     13.95065744	     -1.52921228	      9.41464592	     -3.47949508	     -3.21031172	    -15.28055015	     17.08893897	      0.95394515	      3.75622195	      1.98433820	     12.86034298
      0.10000000	     -7.28846726	      1.93488220	    -36.99391313	     -0.98730418	      0.88476559	     -0.39603732	      9.22845496	      1.30524208	      1.97087488	    -11.21374311	     13.94701991	     -1.52906500	      9.39806079	     -3.47515041	     -3.21903137	    -15.24001236	     17.08245108	      0.95349952	      3.78076173	      1.98063613	     12.85650373
